/* XPM */
static char *_2fca04581a64073a5b413cefb4884b4iySodD634LjNYsOC[] = {
/* columns rows colors chars-per-pixel */
"60 60 218 2 ",
"   c #000001",
".  c #0C0602",
"X  c #0E0901",
"o  c #02040A",
"O  c #120A02",
"+  c #1A0F02",
"@  c #131305",
"#  c #1C1204",
"$  c #1C1C07",
"%  c #020612",
"&  c #050915",
"*  c #0F0E11",
"=  c #070C1C",
"-  c #090E1D",
";  c #0A101F",
":  c #181716",
">  c #35180E",
",  c #3E2609",
"<  c #3C3C0D",
"1  c #0C1324",
"2  c #0E162C",
"3  c #131524",
"4  c #181928",
"5  c #0D1738",
"6  c #111B35",
"7  c #131D3B",
"8  c #16213F",
"9  c #19223A",
"0  c #373028",
"q  c #2B2739",
"w  c #482C08",
"e  c #4F310B",
"r  c #52340B",
"t  c #5C3A0D",
"y  c #4C321B",
"u  c #5A3A12",
"i  c #633E0E",
"p  c #632E1F",
"a  c #603E16",
"s  c #45332F",
"d  c #703627",
"f  c #3E4136",
"g  c #4C4C15",
"h  c #575516",
"j  c #69420F",
"k  c #764A0F",
"l  c #7D4F15",
"z  c #6A691A",
"x  c #7D7C1F",
"c  c #545623",
"v  c #624225",
"b  c #151E40",
"n  c #162242",
"m  c #182445",
"M  c #1A2747",
"N  c #192649",
"B  c #1B294D",
"V  c #142852",
"C  c #1E2C52",
"Z  c #252A41",
"A  c #202E55",
"S  c #373D51",
"D  c #3A3E51",
"F  c #56545A",
"G  c #686361",
"H  c #736F72",
"J  c #A43C22",
"K  c #A43E3A",
"L  c #935D15",
"P  c #986015",
"I  c #AD6E19",
"U  c #B7741A",
"Y  c #BD791C",
"T  c #8C432F",
"R  c #875923",
"E  c #954831",
"W  c #A74725",
"Q  c #A64629",
"!  c #A74A30",
"~  c #A84935",
"^  c #A5433A",
"/  c #A54E3A",
"(  c #B04B36",
")  c #A7503A",
"_  c #AA533A",
"`  c #B55A35",
"'  c #B35B39",
"]  c #BC6436",
"[  c #B8643A",
"{  c #BE7C3A",
"}  c #C07B1C",
"|  c #C15F35",
" . c #C37C21",
".. c #D87A28",
"X. c #C36B35",
"o. c #C56835",
"O. c #CA7233",
"+. c #CB7837",
"@. c #D07932",
"#. c #B45E4B",
"$. c #B6664F",
"%. c #BA664F",
"&. c #BF7E49",
"*. c #BF7C67",
"=. c #888522",
"-. c #B0B034",
";. c #CC831F",
":. c #D0861F",
">. c #EA8E1D",
",. c #F99A17",
"<. c #FD9F1B",
"1. c #FEA417",
"2. c #FDA11B",
"3. c #CD8723",
"4. c #D68724",
"5. c #D99826",
"6. c #C68F3C",
"7. c #D88131",
"8. c #C6903C",
"9. c #D79631",
"0. c #EA8F27",
"q. c #E48C2D",
"w. c #E99624",
"e. c #EC942C",
"r. c #F29D27",
"t. c #FC9E25",
"y. c #F49B2A",
"u. c #FA9F29",
"i. c #D7A933",
"p. c #F6A026",
"a. c #FEA225",
"s. c #FDA328",
"d. c #FFA82A",
"f. c #FDB12D",
"g. c #FDB929",
"h. c #ECA532",
"j. c #FEBD30",
"k. c #CDCC26",
"l. c #CCCC37",
"z. c #D0CE37",
"x. c #D8C835",
"c. c #D2D138",
"v. c #FDC32C",
"b. c #FDC533",
"n. c #FCC539",
"m. c #ECD334",
"M. c #FDD839",
"N. c #FEE32D",
"B. c #FFFE26",
"V. c #FFFE2D",
"C. c #E8E83E",
"Z. c #FEE33D",
"A. c #F9F735",
"S. c #FFFD34",
"D. c #FFFD3A",
"F. c #A78661",
"G. c #C88B48",
"H. c #CC9341",
"J. c #FDA842",
"K. c #FCAE4B",
"L. c #F9B747",
"P. c #EBA353",
"I. c #FEB657",
"U. c #C78C78",
"Y. c #FDB764",
"T. c #FEB964",
"R. c #F6B668",
"E. c #F1B376",
"W. c #FDBD74",
"Q. c #ECCB49",
"!. c #FEC456",
"~. c #F3EE4F",
"^. c #F6F344",
"/. c #FDF543",
"(. c #FFFD44",
"). c #FEFC4B",
"_. c #FEFA58",
"`. c #C9C664",
"'. c #FEE569",
"]. c #FFFB62",
"[. c #FFFA6B",
"{. c #FEE47A",
"}. c #FAF571",
"|. c #FFF973",
" X c #FFFA7A",
".X c #958E8B",
"XX c #B4AD8C",
"oX c #BDB5B0",
"OX c #CA8F81",
"+X c #CA9283",
"@X c #C6BCAD",
"#X c #D0CA86",
"$X c #FEC58B",
"%X c #F8D192",
"&X c #FFED88",
"*X c #FFFA82",
"=X c #FFFA89",
"-X c #FEF797",
";X c #D0C7A6",
":X c #C9C1BB",
">X c #FEDAB8",
",X c #FFF6A5",
"<X c #FFF8AA",
"1X c #FFF5B8",
"2X c #D0C5C2",
"3X c #FFE1C8",
"4X c #FFF4C4",
"5X c #FFF4CE",
"6X c #FEE9D6",
"7X c #F5E5DD",
"8X c #FDEADC",
"9X c #FFF3DB",
"0X c #FDEEE5",
"qX c #FCEEE8",
"wX c #FFF1E5",
"eX c #FFF1EA",
"rX c #FFF2F0",
"tX c #FFF9F1",
/* pixels */
"C C C C C A B A C C C B A B A B A C C C B A C A B A C A B A C C C C C A C B B A B C C C C C C B A B C A B C C C C C C S ",
"C C C C C C A B C A C A C A C C C C B A A B C C C C C C A B A C A B A B C A A C A C B A C A C A C A C C A C A C C C C S ",
"C C C A C A C C A B A B C B A C A C A B C A B A C A B A C C B A B A C C C A C C A A A C A B A B C B A A C C B A C C C D ",
"C C C C C B A C C C C A C A B A B C C A C C A B C C A B C C C C A C C C A B C C B B C C C C C A C A C B A C A B C C C S ",
"C C C A C A A B A C C B C A B A A C C A B A C A A B C C A B A C C C C A C C C C A C A B A C A B C A C C B C C B C C B S ",
"A C C B C B C A B A C A C B A C C C C C A B C C B A C C B A C C A B A B C C C C C C C C C C C C C B A C A C A A C C C D ",
"B A C A B A C C A B C C C C C C B A B C C A B C A C A C B C A B B A C C C A C C C B A C C B A C C C B A C C B A C C C D ",
"A B C C A B A C C C C A B A C C A C A C C C A C C C B A A C C A A C C C A B C C C A B A C A B A A C A B A C C C C C C D ",
"C A B A C C A B A C A B C C C A C A C C A C C C A B C C C C C A C C C C C C C C C C C C C C C C B A C C C C C A B B C D ",
"C C A B C A B A C C C A C C A B C C C C C C C C C A C C C C A B C C C C C A C C C C C C C C C C A B A C C C A B A A C D ",
"A B C C A B C C C C C C A C A A A C A C A C C C A A C A C A A C C C C C A C C C A A A A C C C C C C B A C C A A C C V D ",
"C A C C B A C C C C A B n n n 8 n 8 n n 8 n n n 8 8 n n n n 8 n 8 8 n M M 8 m 8 8 8 8 n 9 M C C A C A B C A B B C A C D ",
"C C A C C B A C A B A M & o o o o o o o o o o o o o o o o o o o o o o o o o o & o o o o o ; B C B A A C C C B A B A V D ",
"C C B A C A B A B A A M %                                                     X           * B A C C B A C C A A B A C D ",
"A B A C A C C C A B C M : # # # # + # $ $ $ $ $ $ $ $ $ $ $ $ $ $ $ $ $ $ $ $ : : : : $ $ : B C B C C A C C B B A C V D ",
"B A C C B A C C 8 ; ; 0  .:.:.;.3.;.5.z.z.z.z.z.z.z.z.z.z.z.z.z.z.z.z.c.c.c.c.;X2X:X#Xk.c.-.0 = 1 8 A B C C A A C C C D ",
"C C C C C C C C 6     w r.s.d.s.s.a.b.(.(.(.(.(.(.(.(.(.(.(.(.(.(.(.(.(.(.(.(.5XtXrX<XV.(.C.<     7 A C C C C C C C C D ",
"C C C C C C A A 5     w w.s.s.s.s.a.j.(.(.(.D.D.S.(.(.(.(.(.(.(.(.(.(.(.S.S.S.5XrXrX,XS.^.~.<     7 A C C C C C C C C D ",
"A B C C C M n b s j j L r.s.a.e.q.q.h.M.Z.Z.|. X X].(.(.(.(.(.(.(.(.D._. X X X1X1X4X&XN.Z.m.=.z z f n 8 M B C C C C V D ",
"B A C C B 1   . P s.s.s.a.s.s.O./ ) X.s.a.d.3XeXeX,XS.(.(.(.(.(.(.(.D.|.wXeXwX_.S.D.M.a.s.d./.(.).=.    1 C C C C C C D ",
"A C A C C =     L d.s.s.s.s.s.O./ / X.s.s.s.3XeXeX,XV.D.D.(.D.(.(.D.S.|.eXeXqX].S.(.M.t.u.d./.(.(.x     ; B C C C C C S ",
"C C C B C : + + P s.s.s.s.a.s.O.) / ] s.a.s.3XeXqX,XD.(.(.(.(.(./.(.S.|.wXeX0X_.D.(.M.t.s.f./.(.(.x @ $ 4 B C C C C C S ",
"C M 1 - 4 I ;.3.w.s.s.y.X.] X.' _ ) ' ] ] X.P.T.Y.%X4X5X4X5X4X4X5X4X4X5XeXeX0X!.g.j.d.s.s.s.j.j.j.x.l.l.-.; ; 1 N C C S ",
"C n     # 4.s.s.s.s.s.y.' / ) ) _ _ ) ) ) _ w.2.<.$XrXeXeXeXeXeXeXeXeXeXwXeX0XI.<.t.s.s.s.s.t.u.s.M.(.(.l.@   o M C C S ",
"A n     # 4.s.a.a.2.1.w.( ^ ^ ^ ^ ^ ~ Q W W >.2.,.$XeXeXeXeXeXwXwXeXeXeXqXeXqXI.,.2.<.t.t.t.<.2.<.N.S.S.k.@   o n C V D ",
"A n o   # 5.b.v.I.W.W.R.H.6.8.G.6.6.G.U.U.U.E.W.W.>XeXwXeXwXqXeXeXwXwXeXeXwXeX$XW.W.I.v.v.n.W.W.W.{. X*X`.@   o M C C D ",
"A n o   $ c.(.S.-XeXeX9X).D./.(.(.A.|.wXeXeXeXeX0XeXwXeXwXeXwXeXeXeXeXwXeXeXwXeXeXeX,XV.D._.9XeXqXeXeXtX@X:   o n C C D ",
"C n     $ c.(.S.-XeXeX9X).D.(.(.(.D.|.eXeXeXeXeXqXqXeXeXeXeXwXeXwXeXeXeXeXwXeXeXeXeX,XV.S._.wXeXqXeXeXeX:X*   o M C C D ",
"C m % o $ c.(.A.-XeXeX9X).D./.).^.A.}.0XqXqXqXqX0X0X0X0X0X0XqXqXeXwXwXeX0X0XqXwXeXqX,XA.A._.6X0X0X0X0XeX:X: o % M A C D ",
"C B m M M c z z XXeXeX6XL.g.j.9.&.6.&.*.*.F.*.*.*.*.*.*.OX0XeXeX,X].[.'.T.Y.Y.Y.Y.T.P.{ { G.I.Y.R.F.G G F n n M B C V D ",
"C C C C C =     .XeXeX6XJ.<.u.o.K ^ K W Q Q Q Q Q Q Q W #.7XeXeX*XV.S.N.2.<.2.2.2.2...K ^ ( ,.1.2.k     - C C C C C C D ",
"C C C C C -   . .XtXtX6XJ.t.s.O.E / / ) ) _ _ ) ) / _ ! $.7XeXeX*XB.S.N.s.a.s.s.s.a.+./ / ' y.d.d.l     ; C C C C C V D ",
"C C C C B 6 1 1 H @XoX@Xn.v.b.9.o.O.X._ _ _ _ ) _ _ ) ! $.7XeXeX<X X X'.2.s.a.q.7.q.7.O.O.O.Y U Y v 1 2 6 C C C C C C S ",
"C C C C C A A C 9 * * g C.(.(.b.s.s.q._ _ ) _ _ _ _ _ ! $.7XeXeXeXeXeX>X1.a.p.[ ) ) @.s.s.w.w X O 9 C C C C C C C C C D ",
"C C C C A B C C 6     g ^.(.(.b.t.a.e._ ) ) ) ) ) ) ) ! $.7XeXeXeXeXtX>X1.a.u.] ) / @.s.a.e.,   . 8 A C C C C C C C V D ",
"C C C C A B C A 7 o   g C./.^.n.a.s.q._ _ ' _ _ _ _ ' ( %.7XeXeXwXwXeX>X2.t.y.] ) _ @.p.r.5., o o 9 C C C C C C C C C D ",
"C C B A B A B A B M M Z g h h 3.s.s.s.e.e.q.[ _ ) O.e.w.P.6XeXeX-X].[.Q.] [ o.q.e.e.U r r y Z m 9 C C C C C C C C C V D ",
"C C A C C C A C C A C N %   X U s.s.s.s.s.s.] / / @.s.2.K.6XeXeX*XV.D.Q./ #._ e.a.d.I .   % V C C C C A C C C C C C C D ",
"C A B C C A C C A B A N %   X Y d.s.s.s.s.s.] ) / @.s.a.K.8XeXeX=XV.(.Q./ / ) e.d.d.I .   & B A C C C C A C C C C C C D ",
"A B A C A B C C C A C B 2 1 4 R } U 4.s.a.u.] ) ) @.s.2.K.8XeXeX%Xx.x.i.X.O.O. .Y Y R 3 1 6 B C C C C C C C C C C C C S ",
"A C A B B A C A C C C C C A B 3 O . j r.s.p.] / / @.a.a.K.8XeXeXOXJ K | s.s.y.t X O 6 C C C C C C C C C C C C C C C C S ",
"B C C A A C C B C C C C C C A 1     j a.s.s.X./ / @.s.<.K.8XtXeXOXW / X.s.s.r.t     2 C C C C C C C C C C C C C C C C S ",
"A C A B C C B A A C C C C C A 2 o o a r.y.y.] _ / +.u.t.K.6XwXwX+XW _ X.r.p.r.u o o 6 C C C C C C C C C C C C C C C C S ",
"C C C C C C A C B A C C C C C N m N q u t i E _ ) ' o.` &.~.].].Q.0.e.3.j t u q N M M C C C C C C C C C C C C C C C C D ",
"C C C C B A B C B A C C C C C C C A b   o . T _ ) _ ) ^ ' C.S.D.v.t.s.;.O   o M A C A B C C C C C C C C C C C C C C C S ",
"C C C C A C A C A C C C C C C C C C M o   O E ' _ _ _ ~ [ ^.(.(.b.a.s.;.O   o n C C C A C C C C C C C C C C C C C C C S ",
"C C C C C C B A B A B A C C C A C C M 2 2 4 d d d E _ ) [ M.Z.M.5.U Y P 4 2 2 M C C C C C C C C C C C C C C C C C C C S ",
"C C C C C C A C C C A C C C C C C A C C C C 3 . O p _ ) ` y.a.s.l O O 3 C C C A C C C C C C A C C C C C C A C C C C C S ",
"C C C C C C C C C C C C C C C C C C C C C C -     p _ _ [ y.s.s.l     ; C A B A C C C C C C C C C C C C C C C C C C C D ",
"C C C C C C C C C C C A C C C C C C C C Z A 1 o o p _ E ' e.r.r.l o % 1 B A C C C C C C C C C C C A C C C C C C C C B S ",
"C C C C C C C C C C C C C C C C C C C C C A B N N q > > > r w r q N M N A C C C C C C C C C C C C C C C C C C C C C C D ",
"C C C C C C C C C C C C C C C C C C C C C B C A A 7             8 A A C B C C C C C C C C C C C C C C C C C C C C A V D ",
"C C C C C C C C C C C C C C C C A C C C C C C C A 6             8 A A A A A B A C C C C C C C C A C C C C C C Z C C B D ",
"C C C C C C C C C C C C C C C C C C C C C C C C A 9 2 2 2 2 2 2 M A B B B A C C C C C C C C C C C C C C C C A A C C C S ",
"C C C C C C A C C C C C C C C C C C C C C C C C C C A C A A A C B A B A A A C C C C C C C C C A C C C C C C A C C C C D ",
"C C C C C C C C C C C C C C C C C C C C C C C C C C C C C C C C C C A A B B C C C C C C C C C C C C C C C C C C A A V D ",
"C C C C C C C C C C C C C C C C C A A A C C C C C C C C C C C C C C C C C C C C C A C C C C C C C A A Z C C C A C C C S ",
"C C C C C C C C C C C C C C C C C A A M C C C C C C C C C C C C C C C C C C C C C C C C C C C C C A C C C C C B C C C D ",
"C C C C A C C C C A C C C C C C B A A B A A A A C A C C C C C A C C C C C C A A C C C C C C C C C C C C C C C C C A V D ",
"B B B A C V V C V C V B C V C V C V B B V B V V V V C B C V V B B V C V C B V V V C B V V C V C C V V C C V C V B V V S "
};
