/* XPM */
static char *_e74a95217aa4e91c914f245d43db318PZnsC93L6RmniunH[] = {
/* columns rows colors chars-per-pixel */
"60 60 123 2 ",
"   c #3E373D",
".  c #4F3D37",
"X  c #42393F",
"o  c #4D3C3C",
"O  c #543F3E",
"+  c #56413C",
"@  c #5B433C",
"#  c #6A4737",
"$  c #6C4935",
"%  c #644639",
"&  c #754C33",
"*  c #7C4E30",
"=  c #7F5032",
"-  c #1E2C4E",
";  c #1E2C51",
":  c #292F47",
">  c #252E4C",
",  c #282F4A",
"<  c #2E3246",
"1  c #27304E",
"2  c #2B324D",
"3  c #323346",
"4  c #3A3647",
"5  c #3E3845",
"6  c #32354D",
"7  c #3D3B4C",
"8  c #242F50",
"9  c #263051",
"0  c #293151",
"q  c #2E3A5A",
"w  c #343751",
"e  c #373952",
"r  c #3C3C51",
"t  c #433943",
"y  c #4A3C41",
"u  c #413D4C",
"i  c #403E51",
"p  c #4E4146",
"a  c #4B424C",
"s  c #534445",
"d  c #5A4644",
"f  c #5D4945",
"g  c #534448",
"h  c #5A494B",
"j  c #454153",
"k  c #5A4D56",
"l  c #644C44",
"z  c #6B4E43",
"x  c #6E5147",
"c  c #6D5249",
"v  c #755446",
"b  c #7D5743",
"n  c #7F5843",
"m  c #615054",
"M  c #6F5752",
"N  c #755B55",
"B  c #7B5D50",
"V  c #825234",
"C  c #81553A",
"Z  c #8A5939",
"A  c #935F3E",
"S  c #94613F",
"D  c #855B44",
"F  c #8A5D43",
"G  c #835D49",
"H  c #86604B",
"J  c #8C644E",
"K  c #956242",
"L  c #996442",
"P  c #9C6644",
"I  c #9C6744",
"U  c #9D6845",
"Y  c #9E6845",
"T  c #9E6947",
"R  c #93664A",
"E  c #97684A",
"W  c #98694D",
"Q  c #846559",
"!  c #916953",
"~  c #966D56",
"^  c #966D57",
"/  c #9B6D51",
"(  c #996E57",
")  c #926B59",
"_  c #956D58",
"`  c #A06946",
"'  c #A16B48",
"]  c #A26B49",
"[  c #A26C48",
"{  c #A26C49",
"}  c #A36D49",
"|  c #A56E4B",
" . c #A6714E",
".. c #A8714D",
"X. c #AA734E",
"o. c #A47150",
"O. c #A77352",
"+. c #AB7450",
"@. c #AB7552",
"#. c #AD7651",
"$. c #AF7752",
"%. c #AF7753",
"&. c #A67558",
"*. c #A7775A",
"=. c #AE7A59",
"-. c #AC795A",
";. c #AD7A5A",
":. c #AE7A5A",
">. c #AF7B5A",
",. c #B07853",
"<. c #B27A55",
"1. c #B37B57",
"2. c #B57C57",
"3. c #B27C59",
"4. c #B17C5A",
"5. c #B27D5A",
"6. c #B37D5B",
"7. c #B57C58",
"8. c #B57D5A",
"9. c #B87E59",
"0. c #B97F5A",
"q. c #B9805A",
"w. c #BA805A",
/* pixels */
"; ; ; ; ; 8 ; ; ; ; ; ; ; ; ; ; ; ; ; ; ; ; ; ; ; ; ; ; ; ; ; ; ; 8 ; ; ; ; ; ; ; ; ; ; ; ; ; ; ; ; ; ; 8 ; ; ; ; ; ; ; ",
"; ; ; ; ; ; ; ; ; ; ; ; ; ; ; ; ; ; ; ; ; ; ; ; ; ; ; ; ; ; ; ; ; ; ; ; ; ; ; ; ; ; ; ; ; ; ; ; ; ; ; ; ; ; ; ; ; ; ; ; ",
"; ; ; ; ; ; ; ; 9 ; ; ; ; ; ; ; ; ; ; ; ; ; ; ; ; ; ; ; ; ; ; ; ; ; ; ; ; ; ; ; ; ; ; ; ; ; ; ; ; ; ; ; ; ; ; ; ; ; 8 ; ",
"; ; ; ; ; ; ; ; ; ; ; ; ; ; ; ; ; ; ; ; ; ; ; ; ; ; ; ; ; ; ; ; ; ; ; ; ; ; ; ; ; ; ; ; ; ; ; ; ; ; ; ; ; ; ; ; ; ; ; ; ",
"; ; ; ; ; ; ; ; ; ; ; ; ; ; ; ; ; ; ; ; ; ; ; ; ; ; ; ; ; ; ; ; ; ; ; ; ; ; ; ; ; ; ; ; ; ; ; ; ; 8 ; ; ; ; ; ; ; ; ; ; ",
"; ; ; ; ; ; ; ; ; ; ; ; ; ; ; ; ; 9 e r r 9 ; ; ; ; ; ; ; ; ; ; ; ; ; ; ; ; ; w r r r r w ; ; ; ; ; ; ; ; ; ; ; ; ; ; ; ",
"8 ; ; ; ; ; ; ; ; ; ; ; ; ; ; ; k Q *.-.-.m ; ; ; ; ; 8 ; ; ; ; ; ; ; ; ; ; 0 ) -.-.-.4._ 6 ; ; ; ; ; ; ; ; ; ; ; ; ; ; ",
"; ; ; ; ; ; ; ; ; ; ; ; ; ; ; 9 H #.#.,.#.h ; ; ; ; ; ; ; ; ; ; ; ; ; ; ; ; 0 J } #.#.,./ 2 ; ; ; ; ; ; ; ; ; ; ; ; ; ; ",
"; ; ; ; ; ; ; ; ; ; ; ; ; ; ; 1 $ Z L I S p - - ; ; ; ; ; ; ; ; ; ; ; ; ; ; 8 # V K I L F 2 ; ; ; ; ; ; ; ; ; ; ; ; ; ; ",
"; ; ; ; ; ; ; ; ; ; ; ; ; ; ; 2 $ Z S L K p - - ; ; ; ; ; ; ; ; ; ; ; ; ; ; > $ * K L L F < ; ; ; ; ; ; ; ; ; ; ; ; ; ; ",
"; ; ; ; ; ; ; ; ; 8 ; ; ; ; - 4 & Z L L K s - - ; ; - ; ; ; ; ; ; ; ; ; ; ; > $ * K L L F < ; ; ; ; ; ; ; ; ; ; ; ; ; ; ",
"; ; ; ; ; ; ; ; ; ; ; ; ; ; - 5 & Z L S S H N B N N N N N N N N N N N N N N B E I L L L F 2 ; ; ; ; ; ; ; ; ; ; ; ; ; 8 ",
"; ; ; ; ; ; ; ; ; ; ; ; ; ; - t & Z L L L X.q.q.q.q.w.w.w.w.w.w.9.w.9.w.w.w.9.w.8.I L L F 9 ; ; ; ; ; ; ; 8 ; ; ; ; ; ; ",
"; ; ; ; ; ; ; ; ; ; ; ; ; ; - X & Z L L L I { { { { { { T  .{ T { { { { { { { { ] L L L F 2 ; ; ; ; ; ; ; ; ; ; ; ; ; ; ",
"; ; ; ; 8 ; ; ; ; ; ; ; ; ; ; t & Z L L L K K F F D D F F F F H H A K F F K Z K L L L L D 0 ; ; ; ; ; ; ; ; ; ; ; ; ; ; ",
"; ; ; ; ; ; ; ; ; ; ; ; ; ; ; t = Z L L L l 6 6 6 6 6 2 6 6 6 6 6 6 6 6 6 6 4 & Z K L L F > ; ; ; ; ; ; ; ; ; ; ; ; ; ; ",
"; ; ; ; ; ; ; ; ; ; ; ; ; ; ; t * Z L S L d ; ; ; ; ; ; ; ; ; ; ; ; ; ; ; ; > % V S L L D 0 ; ; ; ; ; ; ; ; ; ; ; ; ; ; ",
"; ; ; ; ; ; ; ; ; ; 8 ; ; ; ; t & Z L L L g ; ; ; ; ; ; ; ; ; ; ; ; ; ; ; ; > @ * A L L D 0 ; ; ; ; ; ; ; ; ; 9 ; ; ; ; ",
"; ; ; ; ; ; ; ; ; ; ; ; ; ; ; t & Z L L L c j r r r j j j j r j i j j j r j a b Z L L L b 0 ; ; ; ; ; ; ; ; ; ; ; ; ; ; ",
"; ; ; ; ; ; ; 8 ; ; ; ; ; ; ; 4 & Z L L L +.q.4.>.4.8.4.8.4.4.4.6.6.6.7.6.-.-.8.2.I L L b 8 ; ; ; ; ; ; ; ; ; ; ; ; ; ; ",
"; ; ; ; ; ; ; ; ; ; ; ; ; ; ; t * Z K L L ' X.+.+.+.+.+.+.+.+.+.#.O.X.#.+.#.X.+.X.I L L D > ; ; ; ; ; ; ; ; ; ; ; ; ; ; ",
"; ; ; ; ; ; ; ; ; ; ; ; ; ; ; t & Z L L L L L L L L L L I L L I L L L L L L L I L L L L D 0 ; ; ; ; ; ; ; ; ; ; ; ; ; ; ",
"; ; 8 ; ; ; ; ; ; ; ; ; ; ; ; t * Z K L L v d d d d d @ d d d d @ @ @ @ d d @ C Z L L L F 0 ; ; ; ; ; ; ; ; ; ; ; ; ; ; ",
"; ; ; ; ; ; ; ; ; ; ; ; ; ; ; y * Z L L L d - - - - - - - - - - - > - - - - : $ V A L L F 0 ; ; ; ; ; ; ; ; ; ; ; ; ; ; ",
"; ; ; ; ; ; ; ; ; ; ; 8 ; ; ; t * Z L K L d - - ; ; ; ; ; ; ; ; > ; ; 8 ; ; : $ V A L L F 9 ; ; ; ; ; ; ; ; ; ; ; ; ; ; ",
"; ; ; ; ; ; ; ; ; ; ; ; ; ; ; o * Z L L L f 1 2 > > > 2 8 0 8 > > > > > > 8 3 & V K L L F 9 ; ; ; ; ; ; ; ; ; ; ; ; ; 9 ",
"; ; ; ; ; ; ; ; ; ; ; ; ; ; ; y * Z L L L W ~ ~ _ ~ ~ ~ ~ _ ) ( ~ ~ ~ ~ ( _ ( O.X.L K I F 9 ; ; ; ; ; ; ; ; ; ; ; ; ; ; ",
"; ; ; ; ; ; ; ; ; ; ; ; ; ; ; o * Z L L L X.2.2.8.2.8.2.8.2.2.2.9.1.1.1.7.7.1.2.,.` I I D 0 ; ; ; ; ; 9 ; ; ; ; ; ; ; ; ",
"; ; ; ; ; ; ; ; ; ; ; ; ; ; 8 y * Z S I L L T L I T T I I I I ` I I I L I I ` I I L L L F 0 8 ; ; ; ; q ; ; ; ; ; ; ; ; ",
"; ; ; ; 8 ; ; ; ; ; ; ; ; ; ; y * Z I S L F D b b b b b n n n n b D b D D b D A A K L L F 0 ; ; ; ; ; ; ; ; ; ; ; ; ; ; ",
"; ; ; ; ; ; ; ; ; ; ; ; ; ; - o V Z I S L f > > 8 8 8 > > > > > > > > > > > , $ V L L L G 0 ; ; ; ; ; ; ; ; ; ; ; ; ; ; ",
"; ; ; ; ; ; ; ; ; ; ; ; ; ; - o * Z S I L d ; ; ; ; ; > ; ; ; ; ; ; ; ; ; ; > % V A L L H 9 ; ; ; ; ; ; ; ; ; ; ; ; ; ; ",
"; ; ; ; ; ; ; ; ; ; ; ; ; ; ; y * Z K L L d - ; ; - - ; ; - - - - ; - - ; ; 8 % * K L L D 0 ; ; ; ; ; ; ; ; ; ; ; ; ; ; ",
"; ; ; ; ; ; ; ; ; ; ; ; ; ; 8 y * Z L L S G c N M M M M M M M M M M M M M M M R I L L L D 0 ; ; ; ; ; ; ; ; ; ; ; ; ; ; ",
"; ; ; 8 ; ; 8 ; ; ; ; ; ; ; ; y * Z L L L X.w.w.w.w.8.w.w.w.9.w.9.w.9.w.w.w.w.9.8.I L L v 8 ; ; ; ; ; ; ; ; ; ; ; ; ; ; ",
"; ; ; ; ; ; ; ; ; ; ; ; ; ; ; y * Z L L L {  .} {  .{ {  .} } ' | | | } | | | } } I L L x 8 ; ; ; 8 ; ; ; ; ; ; ; ; ; ; ",
"; ; ; ; ; ; ; ; ; ; ; ; ; ; - o * Z K L I K K K L K L K K K L K K K K K K K K K K L L L x 8 8 ; ; ; ; ; ; ; ; ; ; ; ; ; ",
"; ; ; ; ; ; ; ; ; ; ; ; ; ; - o * Z L L L l 4 7 7 7 7 6 7 e 7 2 7 u 7 4 7 4 t # Z K L L x > ; ; ; ; ; ; ; ; ; ; ; ; ; ; ",
"; ; ; ; ; ; ; ; ; ; ; ; ; ; - o * Z L L K h ; ; ; ; ; ; ; ; ; ; ; ; ; ; ; ; - O * K K L c 8 ; ; ; ; ; ; ; ; ; ; ; ; ; ; ",
"; ; ; ; ; ; ; ; ; ; 8 ; ; ; - . * Z L L K s ; ; ; ; ; ; ; ; ; ; ; ; ; ; ; ; > O * K L L x 8 ; ; ; ; ; ; ; ; ; ; ; ; ; ; ",
"; ; ; ; ; ; ; ; ; ; ; ; ; ; ; o * Z L L L x 7 r r r i i i i i i u j 7 a j 7 7 z Z K L L v 8 ; ; ; ; q ; ; ; ; ; ; ; ; ; ",
"; ; ; ; ; ; ; ; ; ; ; ; ; ; - . * Z L L S  .6.%.6.-.1.6.1.-.1.1.=.6.-.4.%.-.*.-.,.I L L v 8 ; ; ; ; ; ; ; ; ; ; ; ; ; ; ",
"; ; ; ; ; ; ; ; ; ; ; ; ; ; - o * Z L L L  .#.%.#.#.%.%.#.%.%.%.#.%.,.%.%.%.%.%.#.I L L v 8 ; ; ; ; ; ; ; ; ; ; ; ; ; ; ",
"; ; ; ; ; ; ; ; ; ; ; ; ; ; > o * Z L L L L L L L L L L L L L K I S L L K K K K L L L L v 8 ; ; ; ; ; ; ; ; ; ; ; ; ; ; ",
"8 ; ; ; ; ; ; ; ; ; ; ; ; ; - o * Z S L K b f g h f f l l l l l l % f f g s p z Z K L L v 8 8 8 ; ; ; ; ; ; ; ; ; ; ; ; ",
"; ; ; ; ; 8 ; ; ; ; ; ; ; ; - o * Z L L K s ; ; ; - ; ; - ; - > 1 - - - - - > + V S L L v 8 ; ; ; ; ; ; ; ; ; ; ; ; ; ; ",
"; ; ; ; ; ; ; ; ; ; ; ; ; - - . * Z L L K g - ; ; ; ; ; ; ; ; 8 - - - ; ; ; > @ * S L L D 8 ; ; ; ; ; ; ; ; ; ; ; ; ; ; ",
"; ; ; ; ; ; ; ; ; ; ; ; ; - - o * Z L L L f : > > > > > > > 8 > > 1 1 1 > > < $ V K L L b > ; ; ; ; ; ; ; ; ; ; ; ; ; ; ",
"; ; ; ; ; ; ; ; ; ; ; ; ; ; - . * Z L L L R ! ! ! ! ! ! ! ! ! ! ! ! ! ! ! R !  . .I L L D < ; ; ; ; ; ; ; ; ; ; ; ; ; ; ",
"; ; ; ; ; ; ; ; ; ; ; ; ; ; - . * Z L L L  .9.9.9.9.9.9.9.9.9.9.w.w.w.w.2.w.q.q.2.T L L D < ; ; ; ; ; ; 8 ; ; ; ; ; ; ; ",
"; ; ; ; ; ; ; 8 ; ; ; ; ; ; - . * Z K L L L ` ` ` ` ` ] ` ` ` ` T Y Y I T T T Y L L L L F 1 ; ; ; ; ; ; ; ; ; ; ; ; ; ; ",
"; ; ; ; ; ; ; ; ; ; ; ; ; ; > . * Z K L L K D D D D D D D D D D b H Z H D D D S A L L L F < ; ; ; ; ; ; ; ; ; ; ; ; ; ; ",
"; ; ; ; ; ; ; ; ; ; ; ; ; - - . * Z I K K d , 0 8 8 0 8 9 8 0 8 2 2 2 2 2 2 3 & V S L L D < ; ; 8 ; ; ; ; ; ; ; ; ; ; ; ",
"; ; ; ; ; ; ; ; ; ; 8 ; ; - - . V Z K I F u ; > ; ; ; ; 8 ; ; ; ; ; - ; - - 1 % V S L L D > ; ; ; ; ; ; ; ; ; ; ; ; ; ; ",
"; ; ; ; ; ; ; ; ; ; ; ; ; ; - o * Z I K D u ; ; ; ; ; ; 8 ; ; ; ; ; ; ; ; ; > @ = S L L v 2 ; ; ; ; ; ; ; ; ; ; ; ; ; ; ",
"; ; ; ; ; ; ; ; ; ; ; ; ; ; -   O % l h y 0 ; ; ; ; ; ; ; ; ; ; ; ; ; ; ; - > X + l z l s > ; ; ; ; ; ; ; ; ; ; ; ; ; ; ",
"; ; ; ; ; ; ; ; ; ; ; ; ; ; ; - > - > - - ; ; ; ; ; ; ; ; ; ; ; ; ; ; ; ; ; ; - - ; - - - - ; ; ; ; ; ; ; ; ; ; ; ; ; ; ",
"8 ; ; ; ; ; ; ; ; ; ; ; ; ; ; ; 8 ; ; ; ; ; ; ; ; ; ; ; ; ; ; ; ; ; ; ; ; ; ; ; ; ; ; ; ; ; ; ; ; ; ; ; ; ; ; ; ; ; ; ; ",
"; ; ; ; ; - ; ; - - - - ; ; ; - - - - - ; - - - ; - ; ; ; ; ; ; - ; ; - ; - - ; ; - - ; ; - - ; ; ; ; ; ; ; ; ; ; ; ; ; ",
"q q q q q q q q q q q q q q q q q q q q q q q q q q q q q q 8 q q q q q q q q q q q q q q q q q q q q q q q q q q q q q "
};
