/* XPM */
static char *e0d6354feca14a3eec644912533acda5p1k0JZyHVA5P2DN0[] = {
/* columns rows colors chars-per-pixel */
"60 60 228 2 ",
"   c #010102",
".  c #0A0505",
"X  c #0C0707",
"o  c #050509",
"O  c #06090D",
"+  c #0C0B0C",
"@  c #120A03",
"#  c #150905",
"$  c #130B0C",
"%  c #1E0D09",
"&  c #16110D",
"*  c #0B0D13",
"=  c #090C16",
"-  c #170D12",
";  c #0E1114",
":  c #0D111C",
">  c #131313",
",  c #1A1717",
"<  c #200D0A",
"1  c #24130E",
"2  c #2B150F",
"3  c #30140D",
"4  c #281516",
"5  c #261C17",
"6  c #261319",
"7  c #251D19",
"8  c #371C15",
"9  c #38250C",
"0  c #362213",
"q  c #3F261E",
"w  c #0D1221",
"e  c #0F1628",
"r  c #151A29",
"t  c #161E33",
"y  c #1B1E34",
"u  c #291C21",
"i  c #281E2D",
"p  c #1F202B",
"a  c #1A2133",
"s  c #17203A",
"d  c #1B233B",
"f  c #262527",
"g  c #372925",
"h  c #35222A",
"j  c #3B302A",
"k  c #252637",
"l  c #253137",
"z  c #3B373A",
"x  c #431F1B",
"c  c #432E05",
"v  c #4B2F04",
"b  c #4B3108",
"n  c #513405",
"m  c #4C2B1B",
"M  c #602C1E",
"N  c #512D28",
"B  c #45352D",
"V  c #4C3C34",
"C  c #47383C",
"Z  c #4D3C3A",
"A  c #523C35",
"S  c #6C3827",
"D  c #693B32",
"F  c #753E34",
"G  c #5C400F",
"H  c #6C4711",
"J  c #4A4238",
"K  c #5B473B",
"L  c #7E4E2D",
"P  c #684638",
"I  c #794436",
"U  c #7C453A",
"Y  c #7B523F",
"T  c #1B2547",
"R  c #1E2B4F",
"E  c #1D2B52",
"W  c #242D4D",
"Q  c #2D3A43",
"!  c #2C314C",
"~  c #30334D",
"^  c #222E51",
"/  c #2B3251",
"(  c #2D395B",
")  c #363752",
"_  c #3B3B51",
"`  c #4D3C41",
"'  c #5C3A47",
"]  c #622F41",
"[  c #623B47",
"{  c #394750",
"}  c #355C75",
"|  c #4A484A",
" . c #51494D",
".. c #5C5B5C",
"X. c #654846",
"o. c #6B5448",
"O. c #7B5446",
"+. c #6A4452",
"@. c #7B4E50",
"#. c #764A5A",
"$. c #63615D",
"%. c #756456",
"&. c #7F4E60",
"*. c #7E5162",
"=. c #656667",
"-. c #6A6C74",
";. c #727373",
":. c #813F2C",
">. c #AF7207",
",. c #AF7208",
"<. c #AF7511",
"1. c #884F2A",
"2. c #844A3C",
"3. c #8A4838",
"4. c #8A4A3E",
"5. c #954733",
"6. c #954933",
"7. c #8B5936",
"8. c #8A563D",
"9. c #A34F36",
"0. c #A65037",
"q. c #AB5235",
"w. c #976423",
"e. c #97623E",
"r. c #9A643F",
"t. c #A1752F",
"y. c #C37F38",
"u. c #875841",
"i. c #8A5C40",
"p. c #91554E",
"a. c #9B5C48",
"s. c #86565B",
"d. c #89555D",
"f. c #86604B",
"g. c #9C6848",
"h. c #866958",
"j. c #996555",
"k. c #A66947",
"l. c #A2674C",
"z. c #B8694C",
"x. c #AD754B",
"c. c #B5754C",
"v. c #B56952",
"b. c #BD6E51",
"n. c #AD7957",
"m. c #B17850",
"M. c #BE7E51",
"N. c #845366",
"B. c #895466",
"V. c #865468",
"C. c #975268",
"Z. c #90646F",
"A. c #967767",
"S. c #C07752",
"D. c #DD940A",
"F. c #E49809",
"G. c #F49D0A",
"H. c #EE9C13",
"J. c #E5991D",
"K. c #F09B14",
"L. c #FDA302",
"P. c #FBA309",
"I. c #F7A51D",
"U. c #CE8729",
"Y. c #D68A28",
"T. c #C78437",
"R. c #CB8333",
"E. c #FAAC2C",
"W. c #AF8B77",
"Q. c #B8937C",
"!. c #C7884F",
"~. c #CC8557",
"^. c #D58B56",
"/. c #D38A58",
"(. c #F8BD55",
"). c #D7996D",
"_. c #F7C775",
"`. c #376987",
"'. c #697984",
"]. c #CC6B8C",
"[. c #D1658D",
"{. c #FC76A7",
"}. c #76838A",
"|. c #688797",
" X c #508EB5",
".X c #698DA1",
"XX c #4D94C0",
"oX c #7BAECB",
"OX c #979794",
"+X c #B39289",
"@X c #AC8997",
"#X c #AFAFAF",
"$X c #B9A7AC",
"%X c #C99487",
"&X c #E7939B",
"*X c #C6A389",
"=X c #D3AB8F",
"-X c #CBA590",
";X c #D4A490",
":X c #D3AB90",
">X c #D7B197",
",X c #E8B99B",
"<X c #F4BF9F",
"1X c #FA88A5",
"2X c #F9AEAA",
"3X c #F3C19E",
"4X c #EEC2A4",
"5X c #F4C4A4",
"6X c #FEC2AC",
"7X c #FDCCAA",
"8X c #F7D2AE",
"9X c #FCE6BA",
"0X c #87AFC5",
"qX c #8CB6CC",
"wX c #91B9D0",
"eX c #CFBBC2",
"rX c #94C2DB",
"tX c #ADCBDB",
"yX c #B1CEDD",
"uX c #DBCED2",
"iX c #E8D9CE",
"pX c #FAE4C8",
"aX c #FAE8D1",
"sX c #E7E6E6",
"dX c #F4EDE9",
"fX c #FDF4E8",
"gX c #FAF7F6",
"hX c #FDFEFE",
/* pixels */
"E E E E E E E E E E E E E E E E E E E E E E E E E E E E E E E E E E E E E E E E E E E E E E E E E E E E E E E E E E E E ",
"E E E E E E E E E E E E E E E E E E E E E E E E E E E E E E E E E E E E E E E E E E E E E E E E E E E E E E E E E E E E ",
"E E E E E E E E E E E E E E E E E E E E E E E E E E E E E E E E E E E E E E E E E E E E E E E E E E E E E E E E E E E E ",
"E E E E E E E E E E E E E E E E E E E E E E E E E E E E E E E E E E E E E E E E E E E E E E E E E E E E E E E E E E E E ",
"E E E E E E E E E E E E E E E E E E E E E E E E E E E E E E E E E E E E E E E E E E R E E E E E E E E E E E E E E E E E ",
"E E E E E E E E E E E E E E E E E / ) ) _ / E E E E E E E E E E R R E E E E ^ ) _ _ _ _ ) E E E E E E E E E E E E E E E ",
"E E E E E E E E E E E E E E E ^ ..h.n.t a a t a t t a a a a a a a a p a y t W h.n.n.n.n.j.~ E E E E E E E E E E E E E E ",
"E E E E E E E E E E E E E E E ^ u.x.t o                         o         o o O O.m.m.m.g.~ E E E E E E E E E E E E E E ",
"E E E E E E E E E E E E E E E ^ P 7.r o                                         l e.r.r.i.! E E E E E E E E E E E E E E ",
"E E E E E E E E E E E E E E E ! P L j b b J | | | | z 7 7 c b b v v v v v v v c l 7.r.r.i.! E E E E E E ^ E E E E E E E ",
"E E E E E E E E E E E E E E E d ; + H F.J.8XsXsXsXsX$X*.@.y.F.F.F.F.F.F.F.F.F.D.b o : g.i.! E E E E E E E E E E E E E E ",
"E E ^ E E E E E E E E E E E E d     H G.I.9XhXhXhXhXeX*.s.Y.L.L.L.L.L.L.L.L.L.G.n   ; r.i.! E E E E E E E E E E E E E ^ ",
"E E E E E E E E E E E E E E R f n n t.(._.aXhXhXhXhXuX@X+X!.U.Y.G.G.G.L.L.L.L.G.H u h D 8.! E E E E E E E E E E E E E E ",
"E E E E E E E E E E E E E e O G F.H._.fXfXgXhXhXhXhXgXgXdX@Xs.a.J.L.G.L.L.L.G.G.k.#.[ : . e E E E E E E E E E E E E E E ",
"E E E E E E E E E E E R E :   H F.L._.gXhXhXhXhXhXhXhXhXgX@XN.p.J.L.G.P.L.L.G.G.k.N.+.+   : E E E E E E E E E E E E E E ",
"E E E E E E E E d d d d s =   m T.R.4XgXhXhXhXhXhXhXhXhXgX@XN.B.c.R.R.R.U.R.y.y.j.N.#.B h h d s E E E E E E E E E E E E ",
"E E E E E E E s O o   X o o o h %.s.$XgXhXhXhXhXhXhXhXhXgX@XN.N.d.B.s.d.d.B.N.d.N.N.N.N.N.' + o s E E E E E E E E E E E ",
"E E E E E E E t o   o     o   i N.N.$XgXhXhXhXhXhXhXhXhXgX@XN.N.N.N.N.N.N.N.N.V.N.N.N.N.V.' .   t E E E E E E E E E E E ",
"E E E E E E E t   X 2 9 c c c H g.g.).9XpXgXhXhXhXhXdXuXuXW.g.l.l.l.l.l.l.j.N.N.V.V.N.N.B.' X   t E E E E E E E E E E E ",
"E E E E E E E t o @ ,.D.D.F.F.F.K.H.K.E.E.9XhXhXhXhXeXZ.Z.R.H.H.H.H.K.H.H.y.d.N.N.N.V.B.B.[ .   t E E E E E E E E E E E ",
"E E E E E E E t   % >.L.L.L.L.L.G.L.L.L.I.9XhXhXgXgXeXV.d.U.P.P.L.L.L.L.P.T.B.V.N.B.V.N.B.' .   t E E E E E E E E E E E ",
"E E E E E E E t o @ w.J.Y.<.>.>.>.>.>.>.<.+X#X#X#X#XOX' D w.,.,.>.>.>.>.,.w.[ [ #.V.V.V.V.+.h u k E E E E E ^ E E E E E ",
"E E E E E E E t o + X.h.@.2 @ @ @ @ @ @ & ; ; ; + * X X o @ @ @ @ @ @ @ @ . . X [ V.B.V.V.N.&.#.h o = E E E E E E E E E ",
"E E E E E E E t o - [ V.#.-                                                   . ' B.V.V.V.V.N.N.h   o E E E E E E E E E ",
"E E E E E E E T * > ` #.[ -   . < < #     % < < % < < < % X     # < < < % #     C +.#.N.N.N.N.N.h   o E E E E E E E E E ",
"E E E E E E E E E E r $ $     8 5.5.m   # S 5.5.5.5.5.6.5.3   X S 5.5.5.5.M .   + - u #.V.N.N.N.h     E E E E E E E E E ",
"E E E E E E E E E E w         x 9.q.M   # :.q.q.q.q.q.q.9.8   # 1.q.q.q.0.S     o   6 *.V.B.N.N.h     E E E E E E E E E ",
"E E E E E E E E E E a > ; o   m z.b.D   # 4.S.S.z.z.S.z.v.q   # 8.b.b.z.b.I .   < 3 x [ [ #.*.N.h   o E E E E E E E E E ",
"E E E E E E E E E E E E E *   K ,X3Xh.  & Q.3X3X<X<X<X<X,XV   $ Q.<X<X<X3XA.X   S 9.F < $ h N.N.h     E E E E E E E E E ",
"E E E E E E E E E E E E E *   X.5X8Xh.  & +X7X7X7X7X7X7X4XK   & *X7X7X7X8XA.X o S q.1.#   u N.N.h   o R E E E E E E E E ",
"E E E E E E E E E E E E E *   X.<X7XA.7 q *X7X7X7X7X7X7X5Xo.5 g %X7X6X6X6XA.X . :.z.3.#   u #.N.h   o E E E E E E E E E ",
"E E E E E E E E E E E E E *   ' 1X1X&X-X-X<X7X7X7X5X7X7X7X>X*X*X&X1X1X1X1XC.. . n.,XQ.-   u *.N.h   o E E E E E E E E E ",
"E E E E E E E E E E E E E *   ] {.{.1X7X7X7X7X7X7X7X7X7X7X7X7X6X1X{.{.{.{.C.- X W.8X*X,   u *.N.h     R E E E E E E E E ",
"E E E E E E E E E E E E E e O ] ].[.%X:X:X:X=X=X:X:X:X:X:X=X:X:X].[.[.].[.[ + X A.>XW.&   6 +.+.k = : E E E E E E E E E ",
"E E E E E E E E E E E E E E E k 6 6 7 7 7 7 7 5 5 5 7 7 5 7 7 7 6 6 u 6 6 -     - 7 , o   o $ - t E E E E E E E E E E E ",
"E E E E E E E E E E E E E ^ E a o                                     .                         T E E E E E E E E E E E ",
"E E E E E E E E E E E E E E E k > ; O   o % < 6 0 0 8 0 0 0 0 0 0 0 8 1 1 1 1 1 .   o $ * ; ; ; E E E E E E E E E E E E ",
"E E E E E E E E E E E E E E E Z L 7.r   . D F p.m.!.M.!.!.M.!.S.!.S.k.2.I U U F 4   = r.o.W E E E E E E E E E E E E E E ",
"E E E E E E E E E E E E E E E Z L 7.y   . D u.0.~.^.^.^./././.^.^.^.S.4.4.u.4.U 2   : r.o.^ E E E E E E E E E E E E E E ",
"E E E E E E E E E E E E E E R Z L 7.i # < D 4.a.~.^.^.^././././.~.~.c.2.U U 4.2.8 # , r.o.^ E E E E E E E E E E E E E E ",
"E E E E E E E E E E E E E E E Z w : g D D u.u.0./.^.^./.^.^.^.~.l.9.I 2 6 N p.:.F D N u : r E E E E E E E E E E E E E E ",
"E E E E E E E E E E E E E E R s     m 4.4.2.4.a./.^.^./.^.^.^.S.a.4.A .   8 :.u.u.u.D $ o : E E E E E E E E E E E E E E ",
"E E E E E E E E E E E E E E R s o   N p.a.u.F 2.x.m.~.).).).).).8.F N .   x f.g.a.a.O.- o w E E E E E E E E E E E E E E ",
"E ^ E E E E E E E E E E E E R s o   o.,X;XB X % 1 1 %.iXpXaXaXiXV # @     X.,X,X2X,XW.,   e E E E E E E E E E E E E E E ",
"E E E E E E E E E E E E E E R s     %.8X,Xj         $.dXfXfXfXiXz         o.5X7X7X8X*X7   e E E E E E E E E E E E E E E ",
"E E E E E E E E E E E E E E E d O . %.<X>Xj     O O =.sXdXdXdXiXz O O O o o.>X5X3X4X+X7 = e E E E E E E E E E E E E E E ",
"E E E E E E E E E E E E E E R Z P P z V V >   l }.|.0XtXtXyXtXtX.X.X|.`.`.} V V V V z g.O.! E E E E E E E E E E E E E E ",
"E E E E E E E E E E E E E E R Z L 7.r         Q wXrXrXwXrXrXrXrXrXrXoX XXX} o       : r.O.! E E E E E E E E E E E E E E ",
"E E E E E E E E E E E E E E R Z L 7.a + O     Q 0XrXqXwXwXqX0X0XwXqXoX X X} : O o   w r.8.! E E E E E E E E E E E E E E ",
"E E E E E E E E E E ^ E E E R A L 7.r.r.Y *   f ;.}.}.}.}.{ l l l l { -.'.-.....,   w g.8.! E E E E E E E E E E E E E E ",
"E E E E E E E E E E E E E E R V L 7.r.r.r.:   f -.;.;.;.;.f         f -.;.;.;.-.f   : r.8.! E E E E E E E E E E E E E E ",
"E E E E E E E E E E E E E E R A L 7.r.r.e.:   , ..=.$.$.$.f O O o   r $.$.=.$...7   : r.i.! E E E E E E E E E E E E E E ",
"E E E E E E E E E E E E E E E A L 7.r.r.e.:   . > > > > > T ^ E *   . ; > > > > o   : e.8.! E E E E E E E E E E E E E E ",
"E E E E E E E E E E E E E E R V L 7.r.r.8.:             o T E E =                   : g.u.W E E E E E E E E E E E E E E ",
"E E E E E E E E E E E E E E T V 1.7.r.r.i.w . o o o o o + E E E :   . . o . .   . o : r.O.W E E E E E E E E E E E E E E ",
"^ E E E E E E E E E E E E E E z K P X. .| / E E E E E E E E E E T y y y y y k k y k ` P | W E E E E E E E E E E E E E E ",
"E E E E E E E E E E E E E E E E R R R R E E E E E E E E E E E E R E E E E E E E E R R R E E E E E E E E E E E E E E E E ",
"E E E E E E E E E E E E E E E E R E E E E E E E E E E E E E E E E E E E E E E E E E E E E E E E E E E E E E E E E E E E ",
"E E E E E E E E R E E E E E R E E R E E E R R E T E E R E E E E E E E R E T E E E E E E T E E E E E E E E E E E E E E E ",
"( ( ( ( ( ( ( ( ( ( ( ( ( ( ( ( ( ( ( ( ( ( ( ( ( ( ( ( ( ( ( ( ( ( ( ( ( ( ( ( ( ( ( ( ( ( ( ( ( ( ( ( ( ( ( ( ( ( ( { "
};
