/* XPM */
static char *c49186eee7ee4467b3ad9d133bbfa26cnAkyF4bgAEp4v6uS[] = {
/* columns rows colors chars-per-pixel */
"60 60 219 2 ",
"   c #010102",
".  c #0A0505",
"X  c #0D0805",
"o  c #050509",
"O  c #0C0609",
"+  c #06090D",
"@  c #0C0B0C",
"#  c #120A03",
"$  c #150905",
"%  c #130B0C",
"&  c #1E0D09",
"*  c #16110D",
"=  c #060911",
"-  c #0B0D13",
";  c #0B0F19",
":  c #170D12",
">  c #0E1114",
",  c #0D111C",
"<  c #131313",
"1  c #1A1717",
"2  c #200D0A",
"3  c #24130E",
"4  c #2B150F",
"5  c #30140D",
"6  c #271314",
"7  c #261C17",
"8  c #261319",
"9  c #251D19",
"0  c #291B1B",
"q  c #371C15",
"w  c #38250C",
"e  c #362213",
"r  c #3F261E",
"t  c #0D1221",
"y  c #0F1628",
"u  c #151A29",
"i  c #161E33",
"p  c #1B1E34",
"a  c #291C21",
"s  c #281E2D",
"d  c #1F202B",
"f  c #1A2133",
"g  c #17203A",
"h  c #1A223C",
"j  c #262527",
"k  c #35222A",
"l  c #3B302A",
"z  c #242637",
"x  c #253137",
"c  c #3B373A",
"v  c #431F1B",
"b  c #432E05",
"n  c #4B2F04",
"m  c #4B3108",
"M  c #513405",
"N  c #4C2B1B",
"B  c #602C1E",
"V  c #45352D",
"C  c #52302B",
"Z  c #4A3B36",
"A  c #673727",
"S  c #723827",
"D  c #693B32",
"F  c #753E34",
"G  c #5C400F",
"H  c #6C4711",
"J  c #4A4238",
"K  c #5B483D",
"L  c #794436",
"P  c #7C453A",
"I  c #1A2443",
"U  c #1E2945",
"Y  c #1A2648",
"T  c #1D2A4C",
"R  c #1D2B52",
"E  c #202A45",
"W  c #222C4A",
"Q  c #2D3A43",
"!  c #5C3A47",
"~  c #622F41",
"^  c #623A43",
"/  c #623D4A",
"(  c #394750",
")  c #355C75",
"_  c #4A4A4A",
"`  c #404B52",
"'  c #5C5B5C",
"]  c #654647",
"[  c #69564A",
"{  c #6A4452",
"}  c #7B4F50",
"|  c #764A5A",
" . c #5E605E",
".. c #63615D",
"X. c #756456",
"o. c #7F4E60",
"O. c #7E5162",
"+. c #626363",
"@. c #6B6B6C",
"#. c #6A6C74",
"$. c #727373",
"%. c #813F2C",
"&. c #AF7207",
"*. c #AF7208",
"=. c #AF7511",
"-. c #844A3C",
";. c #8A4838",
":. c #8A4A3E",
">. c #954733",
",. c #8A5234",
"<. c #A34F36",
"1. c #A65037",
"2. c #AB5235",
"3. c #976423",
"4. c #A1752F",
"5. c #C37F38",
"6. c #905549",
"7. c #9B5C48",
"8. c #84555B",
"9. c #89555D",
"0. c #8F5A5A",
"q. c #A05C45",
"w. c #916655",
"e. c #A66947",
"r. c #A2674C",
"t. c #B8694C",
"y. c #AC7449",
"u. c #B6744B",
"i. c #B56952",
"p. c #BD6E51",
"a. c #BE7E51",
"s. c #845366",
"d. c #895464",
"f. c #865468",
"g. c #885469",
"h. c #975268",
"j. c #90646F",
"k. c #967767",
"l. c #A37C67",
"z. c #C07752",
"x. c #DF9407",
"c. c #DD940A",
"v. c #E4970A",
"b. c #E49908",
"n. c #F59E07",
"m. c #F49D0C",
"M. c #EE9C13",
"N. c #E5991D",
"B. c #F09B14",
"V. c #FDA302",
"C. c #FBA309",
"Z. c #F7A51D",
"A. c #CE8729",
"S. c #D68A28",
"D. c #C78437",
"F. c #CB8333",
"G. c #FAAC2C",
"H. c #AF8B77",
"J. c #B8937C",
"K. c #C7884F",
"L. c #CC8557",
"P. c #D58B56",
"I. c #D38A58",
"U. c #F8BD55",
"Y. c #D7996D",
"T. c #F7C775",
"R. c #376987",
"E. c #697984",
"W. c #CC6B8C",
"Q. c #D1658D",
"!. c #FC76A7",
"~. c #76838A",
"^. c #688797",
"/. c #508EB5",
"(. c #698DA1",
"). c #4D94C0",
"_. c #7BAECB",
"`. c #979794",
"'. c #B39289",
"]. c #AC8997",
"[. c #AFAFAF",
"{. c #B9A7AC",
"}. c #E7939B",
"|. c #CAA081",
" X c #C5A38B",
".X c #D3AB8F",
"XX c #CBA590",
"oX c #D3AB90",
"OX c #D7B197",
"+X c #E8B99B",
"@X c #F4BF9F",
"#X c #FA88A5",
"$X c #F9AEAA",
"%X c #F3C19E",
"&X c #EEC2A4",
"*X c #F4C3A3",
"=X c #F3C8A7",
"-X c #FEC2AC",
";X c #FDCCAA",
":X c #F7D2AE",
">X c #FCE6BA",
",X c #87AFC5",
"<X c #8CB6CC",
"1X c #91B9D0",
"2X c #CFBBC2",
"3X c #94C2DB",
"4X c #ADCBDB",
"5X c #B1CEDD",
"6X c #DBCED2",
"7X c #E8D9CE",
"8X c #FAE4C8",
"9X c #FAE8D1",
"0X c #E7E6E6",
"qX c #F4ECE4",
"wX c #F4EDEA",
"eX c #FDF4E8",
"rX c #FAF7F6",
"tX c #FDFDFD",
"yX c #FDFEFE",
/* pixels */
"R R R R R R R R R R R R R R R R R R R R R R R R R R R R R R R R R R R R R R R R R R R R R R R R R R R R R R R R R R R R ",
"R R R R R R R R R R R R R R R R R R R R R R R R R R R R R R R R R R R R R R R R R R R R R R R R R R R R R R R R R R R R ",
"R R R R R R R R R R R R R R R R R R R R R R R R R T R R R R R R R R R R R R R R R R R R R R R R R R R R R R R R R R R R ",
"R R R R R R R R R R R R R R R R R R R R R R R R R R R R R R R R R R R R R R R R R R R R R R R R R R R R R R R R R R R R ",
"R R R R R R R R R R R R R R R R R R R R R R R R R R R R R R R R R R R R R R R R R R R R R R R R R R R R R R R R R R R R ",
"R R R R R R R R R R R R R R R R R R R R R R R R R R R R R R R R R T R R R R R R R R R R R R R R R R R R R R R R R R R R ",
"R R R R R R R R R R R R R R R R R R Y f i f f f f i f f f f f f f f f f p g I I T R R R R R R R R R R R R R R R R R R R ",
"R R R R R R R R R R R R R R R R R R f o                           X       o o + h R R R R R R R R R R R R R R R R R R R ",
"R R R R R R R R T R R R R R R R R R f                                           h R R R R R R R R R R R R R R R R R R R ",
"R R R R R R R R R R R R R R R T h h l m m J _ _ _ _ c 0 0 w n n n n n n n n n b x I Y R R R R R R R R R R R R R R R R R ",
"R R R R R R R R R R R R R R R g > + H b.N.:X0X0X0X0X{.O.| A.b.b.b.b.b.b.b.b.b.c.m o , T R R R R R R R R R R R R R R R R ",
"R R R R R R R R R R R R R R R g     H n.Z.>XyXyXyXyX2XO.9.S.V.V.V.V.V.V.V.V.V.n.M   ; T R R R R R R R R R R R R R R R R ",
"R R R R R R R R R R R R R T U l M M 4.U.T.8XyXyXyXyX6X].'.K.A.S.m.n.n.n.V.V.V.m.H a k h I U R R R R R R R R R R R R R R ",
"R R R R R R R R R R R R R y @ G b.M.T.eXeXrXyXyXtXyXrXrXwX].8.7.N.V.V.V.V.V.n.m.e.| ] : o u T R R R R R R R R R R R R R ",
"R R R R R R R R R R R R R ,   G n.V.T.yXtXtXtXtXtXtXyXyXrX].s.0.N.n.V.V.V.V.V.m.i.g.{ @   , T R R R R R R R R R R R R R ",
"R R R R R R R T g f f h g ;   N 5.D.+XrXtXtXtXtXtXtXyXyXrX].d.d.u.F.F.F.F.F.5.5.w.g./ V k k f g Y R R R R R R R R R R R ",
"R R R R R R R g + o X o o   o k X.8.{.rXtXtXtXtXtXtXyXyXrX].s.s.9.d.8.9.9.d.8.d.d.s.s.s.d.! @ o i R R R R R R R R R R R ",
"R R R R R R R g o       o o   s O.s.{.rXtXyXtXtXyXyXyXyXrX].s.s.f.s.s.s.s.s.s.f.f.s.s.s.g.! .   i R R R R R R R R R R R ",
"R R R R R R R i o . 4 w b b b H r.r.|.>X8XrXyXyXyXyXwX6X6XJ.7.r.r.r.r.r.r.w.f.s.s.f.f.f.g.! .   i R R R R R R R R R R R ",
"R R R R R R R i   # *.v.x.c.v.v.M.M.Z.Z.G.>XyXyXyXtX2Xj.j.A.M.B.M.B.M.M.M.D.d.s.f.f.s.s.g./ .   i R R R R R R R R R R R ",
"R R R R R R R i X * &.V.V.V.V.V.n.V.V.V.Z.>XyXyXrXrX2Xs.9.A.m.C.V.V.V.V.C.F.d.f.f.f.s.s.g.! .   i R R R R R R R R R R R ",
"R R R R R R R i   # 4.S.S.=.&.&.&.*.&.&.=.'.[.[.[.[.`.! D 3.*.*.&.&.&.&.*.,.D / | d.g.s.g.{ k a h Y Y R R R R R R R R R ",
"R R R R R R R i o O K 0.} 4 # # # # # # * > > > @ % @ . . X $ X # # # # # X . O ^ f.f.g.g.s.o.| k o = I R R R R R R R R ",
"R R R R R R R i   @ ] h.| :                                                   . ! g.s.s.s.s.s.s.k   o I R R R R R R R R ",
"R R R R R R R I - < ! { / :   X 2 2 $     $ 2 2 & & & & & .     $ 2 2 & & #     Z | | O.s.s.s.s.k   o I R R R R R R R R ",
"R R R R R R R R T U u % %     q ;.>.N   $ S >.>.>.>.>.>.;.5   # S >.>.>.>.B X   O % a O.s.s.s.s.k     I R R R R R R R R ",
"R R R R R R R R R R t         v 1.2.B   $ %.2.2.2.2.2.2.>.q   # ;.2.1.2.1.A         8 o.s.g.s.s.k     I R R R R R R R R ",
"R R R R R R R R R R f > > o   N t.p.A   $ 6.z.z.p.p.p.p.i.N   $ ,.p.p.p.p.L .   & 5 q / { | o.s.k   o Y R R R R R R R R ",
"R R R R R R R R R R T W U -   K +X%Xw.  * J.*X%X@X@X@X@X+XZ   % J.*X@X@X%Xk.. . A <.F 3 % k s.s.k     I R R R R R R R R ",
"R R R R R R R R R R R R T -   ] =X;Xk.  * J.;X;X;X;X;X;X*XK   < |.;X;X;X:Xk.. . S 2.%.$   a s.s.k   o I R R R R R R R R ",
"R R R R R R R R R R R R T -   ] @X=Xk.7 r  X;X*X;X;X;X;X*X[ 7 r |.-X-X-X-Xk.. . %.t.;.&   a | s.k   o I R R R R R R R R ",
"R R R R R R R R R R R R T -   ! #X#X}. XXX*X;X;X;X;X;X;X=XOX XXX}.#X#X#X#Xh.. . l.+XJ.*   a O.s.k   o Y R R R R R R R R ",
"R R R R R R R R R R R R Y -   ~ !.!.$X;X;X;X;X;X;X;X;X;X;X;X;X-X#X!.!.!.!.h.O O H.:X X1   a s.s.k   o I R R R R R R R R ",
"R R R R R R R R R R R R T t = ~ W.Q.W..XoX.X.X.XoXoXoXoX.X.XoXoXW.W.Q.Q.Q.8.O . k.OXH.*   8 { { k - ; Y R R R R R R R R ",
"R R R R R R R R R R R R R T T z 8 8 0 7 9 9 7 7 7 7 9 9 9 7 9 0 8 8 a 8 8 %     : 9 1     o % : p R T R R R R R R R R R ",
"R R R R R R R R R R R R R R R f                                                                 p R R R R R R R R R R R ",
"R R R R R R R R R R R R R R R z , < @     % 6 4 e e 0 e e e e e e e q 3 3 3 & : .     - - > - > I R R R R R R R R R R R ",
"R R R R R R R R R R R R R R R W W W p   O A P :.u.K.K.K.a.a.a.L.K.z.e.-.P P L L 4   ; Y U E U W R R R R R R R R R R R R ",
"R R R R R R R R R R R R R R R R R R u   $ D ;.q.L.P.P.P.P.P.P.P.P.P.z.:.:.:.:.6.4   t R R R R R R R R R R R R R R R R R ",
"R R R R R R R R R R R R R R R R R R j % 2 D ;.7.L.P.P.P.P.P.P.I.L.L.u.-.P P :.P q % 1 U W T R R R R R R R R R R R R R R ",
"R R R R R R R R R R R R R R R U t , v D D } 6.7.I.P.P.P.P.P.P.L.r.,.L 4 2 C -.-.F D C 8 , u R R R R R R R R R R R R R R ",
"R R R R R R R R R R R R R R R g     N 6.;.;.-.q.I.P.P.P.I.P.P.z.7.6.A .   q -.:.6.:.D % o t R R R R R R R R R R R R R R ",
"R R R R R R R R R R R R R R R g     V 7.7.-.F -.y.y.L.Y.Y.Y.Y.Y.,.F C .   v 7.7.7.7.} % o t R R R R R R R R R R R R R R ",
"R R R R R R R R R R R R R R R g o   [ +XoXV O & 3 3 X.7X9X9X9X7XZ % X     ] OX+X+X+XH.8 o t R R R R R R R R R R R R R R ",
"R R R R R R R R R R R R R R R h     X.;X+XV         ..qXeXeXeX7Xc         [ =X;X;X;X X7   y R R R R R R R R R R R R R R ",
"R R R R R R R R R R R R R R R I + o X.&XOXl     + @ @.0XqXqXwX7XZ + + + o [ +X&X%X&X'.u = u R R R R R R R R R R R R R R ",
"R R R R R R R R R R R R R R R T I I c Z V <   j ^.^.,X4X4X5X5X4X_.(.E.R.R.) J Z J Z c T Y T R R R R R R R R R R R R R R ",
"R R R R R R R R R R R R R R R R R R u         Q 1X3X3X1X3X3X3X3X3X3X_.).).)         t T R R R R R R R R R R R R R R R R ",
"R R R R R R R R R R R R R R R R R R f + +     Q ,X<X1X1X1X<X,X,X,X,X_././.) ; + o   t R R R R R R T R R R R R R R R R R ",
"R R R R R R R R R R R R R R R R R R T I h >   j ~.~.~.~.~.` x x x p ( E.E.#.' ' 1   t R R R R R R R R T T R R R R R R R ",
"R R R R R R R R R R R R R R R R R R R R T ,   j @.$.$.$.@.j         j @.$.$.#.@.j   t R R R R R R R R R R R R R R R R R ",
"R R R R R R R R R R R R R R R R R R R R T ,   1 ' +.+. ...j + + o   9  .+.+.+. .1   , R R R R R R R R R R R R R R R R R ",
"R R R R R R R R R R R R R R R R R R R R T ,   o < < * < 1 h T U -   o < < < < < o   , R R R R R R R R R R R R R R R R R ",
"R R R R R R R R R R R R R R R R R R R R R ,             o g R R ;                   , R R R R R R R R R R R R R R R R R ",
"R R R R R R R R R R R R R R R R R R R R R , o o o o o o = I R R ;   O   . . .   . . y R R R R R R R R R R R R R R R R R ",
"R R R R R R R R R R R R R R R R R R R R R T I I I I Y I Y T R R p p p p p p z z p p E R R R R R R R R R R R R R R R R R ",
"R R R R R T R R R R R R R R R R R R R R R R R R R R R R R R R R R R R R R R R R R R R R R R R R R R R R R R R R R R R R ",
"R R R R R R R R R R R R R R R R R R R R R R R R R R R R R R R R R R R R R R R R R R R R R R R R T T R R R R R R R R R R ",
"R R R R R R R R R R R R R R R R R R R R R R R R R R R R R R R R R R R R R R R R R R R R R R R R R R R R R R R R R R R R ",
"R R R R R R R R R R R R R R R R R R R R R R R R R R R R R R R R R R R R R R R R R R R R R R R R R R R R R R R R R R R R "
};
