/* XPM */
static char *c662dddd9f034bfffc6a54ba15af3a4d0c1w5QlowONwSDZ6[] = {
/* columns rows colors chars-per-pixel */
"60 60 112 2 ",
"   c #3A1E2D",
".  c #3E212F",
"X  c #42232F",
"o  c #592C2E",
"O  c #442430",
"+  c #4B2635",
"@  c #4E2836",
"#  c #4F2938",
"$  c #522A37",
"%  c #592F35",
"&  c #542D3A",
"*  c #5A2F3D",
"=  c #5C313D",
"-  c #61353E",
";  c #6D3B3D",
":  c #723E3E",
">  c #74403F",
",  c #7C443F",
"<  c #573342",
"1  c #5D3241",
"2  c #633443",
"3  c #683744",
"4  c #653943",
"5  c #6B3A45",
"6  c #623948",
"7  c #6D3D4B",
"8  c #703F4A",
"9  c #7B4344",
"0  c #7C4B43",
"q  c #71414A",
"w  c #7E4648",
"e  c #754353",
"r  c #794654",
"t  c #7D4A53",
"y  c #7D4B5B",
"u  c #82463E",
"i  c #81483F",
"p  c #8A493F",
"a  c #844741",
"s  c #854A42",
"d  c #8C4C43",
"f  c #844B4E",
"g  c #914F42",
"h  c #8D5046",
"j  c #83534B",
"k  c #8B534C",
"l  c #86594F",
"z  c #945244",
"x  c #9A5646",
"c  c #9E5947",
"v  c #94544B",
"b  c #9B5748",
"n  c #9D5A4A",
"m  c #814D55",
"M  c #894F51",
"N  c #824F58",
"B  c #8B5152",
"V  c #8F5C54",
"C  c #8E565B",
"Z  c #945C55",
"A  c #935A5D",
"S  c #985E5D",
"D  c #A05A47",
"F  c #A35C49",
"G  c #9C6156",
"H  c #936158",
"J  c #99655E",
"K  c #A6614B",
"L  c #AC644D",
"P  c #AF684F",
"I  c #B0674E",
"U  c #B2694F",
"Y  c #AA6350",
"T  c #A56851",
"R  c #AB6C53",
"E  c #B46C52",
"W  c #AF7057",
"Q  c #B67253",
"!  c #BB7653",
"~  c #B77659",
"^  c #B97759",
"/  c #BD795A",
"(  c #845465",
")  c #885664",
"_  c #9E6961",
"`  c #C47D56",
"'  c #C07C5B",
"]  c #C78357",
"[  c #C78158",
"{  c #CA8559",
"}  c #CE895B",
"|  c #D48D5C",
" . c #D7905E",
".. c #D8925F",
"X. c #CF8C61",
"o. c #D08D62",
"O. c #D29264",
"+. c #D99664",
"@. c #DD9C67",
"#. c #D69A6A",
"$. c #DC9E6B",
"%. c #DEA06D",
"&. c #DDA373",
"*. c #DFA778",
"=. c #E2A46E",
"-. c #E3A672",
";. c #E6A973",
":. c #E8AC77",
">. c #E0A778",
",. c #E5AB79",
"<. c #E8AD7A",
"1. c #ECB27D",
/* pixels */
"o D K L ! | | | +.=.@.| +.=.=.=.=.=.=.=.=.=.@.| +.=.@.| +.=.=.=.=.=.=.=.=.=.@.} ..=.@.|  .=.=.=.=.=.=.=.@.| | | ` I L D ",
"o c F L ! |  .| +.-.$.| +.=.=.-.=.=.-.=.-.-.$.| +.=.@.| +.=.=.=.=.=.=.=.=.-.@.| +.=.@. .@.-.=.=.=.-.=.-.%. .| | ` I L D ",
"% d x L ` =.-.<.1.1.1.1.1.1.1.1.1.1.1.1.1.1.1.1.:.=.=.=.%.=.-.1.1.1.1.1.1.1.:.=.=.=.;.1.1.1.1.1.1.1.1.1.1.1.:.=.o.I F d ",
"% d z Y / $.-.<.,.<.,.<.<.:.<.,.<.,.<.<.<.:.<.<.;.$.$.$.$.@.=.,.,.,.,.,.,.<.>.$.@.$.&.;.>.<.<.<.,.<.>.<.;.<.-.%.o.F D p ",
"< ) ) ) S E E E E E E E E E E E E E E E E E E E E E E E Y K K K K K F z F E K z x K n z x K Y K K Y Y E E E E E Y d a 3 ",
"< ( ( ( A L L I I I I I I L P L L L L I I I Y L L L L L L D F F F F x d z L F p g c x p z F D D F F K I L E I L F s 8 2 ",
"6 ( ( ( A F F I I I I R L F F F F F K I I I I E L F F F F F K I K F F F x d d p d g g F D D K L L I I I I L L U b 2 3 2 ",
"6 ( ( ( C F F I L F F K F b x x x x n K K K Y F F b b x x b D K F x x x z s s u u i g x x x F Y K K K K K I I I v 2 2 2 ",
"1 ( ( r B L K F i X @ % = 5 - $ % $ $ % - 5 - % = 5 2 $ = 5 - % * 5 2 & * 3 = & % 4 = $ = 5 5 4 5 5 2 & : I I I b 2 1 $ ",
"1 ( y e B I L F i   O = 4 q 5 = = = = = - 5 3 = = 2 2 = - q 4 = - 8 2 $ = 8 5 = - q 5 = - 7 7 q 8 8 - + : I L I v 2 * @ ",
"6 ( ( ( A I L F a + j *.*.>.&.#.#.#.#.#.O.[ [ { T 2 V *.&.#.O.] ` } W 7 J >.&.#.#.$.#.#.O.[ } #.O.{ K + ; F F I z + # @ ",
"6 ( ( ( A I L F s + l 1.<.<.;.$.$.$.$.$.+.| | | R 2 H 1.;.%.+.} } o.W 7 T 1.,.$.%.$.$.$...}  .@.+.| T O ; F K I h # # $ ",
"< ) y y N E K F d 1 k ..{ E E E P K P U E I I F v e Z  .{ E P K K K v 2 k  .[ K K L n z x K c z z K s + ; I L F h 1 2 2 ",
"< ( y e B Y K F k 1 k | ` L L K F x n K L Y K F v e Z  .` I K D D F d 2 k | ` D c z z i d x z p z D a @ : I L F h 6 2 2 ",
"1 y e e M F F D h 2 M | ` F d & = 5 5 5 a D F I n e Z  .[ L I I K F v e H  .` D i X + 5 - $ : D x g , 2 w I L L v 2 2 3 ",
"1 y r e f F D F h 2 k | ` D s # = 5 4 2 f F F I Z 7 Z  .` I I L K D v q Z | ` F , . + 5 2 $ 5 D x p 9 2 w L I I v 2 2 2 ",
"< ( ( 8 M I I F d 2 h  .` Y v 1 9 K v 2 w I K F v 8 S | ` I L F F F h 2 B | ` D d 1 8 L b e f D D F a + : I L F d 2 2 2 ",
"< ( ( e M I F F d 2 k | [ I v 2 w Y v 2 s I L F C 8 Z  .` I K F D F h 2 k | ` F h 1 8 I Z e f D F F a + : I L F M 2 2 2 ",
"< 7 r e M F F I v 2 k  .[ I v 2 5 t e e f F F I b 2 M | ` F F I K F B 8 Z  .` I d @ 2 f e 2 w L Y D d 2 9 D F I v 3 2 3 ",
"< 8 r 8 M F F I v 1 k  .[ I n q q y t t B F F I b 2 B | ` F F I L F v e Z  .` I v = 3 m q 7 s L L F d 2 9 D L I v 2 2 2 ",
"< 8 8 y M I Y I v 2 k | ` I ' >.>.$.O.} ` L L F v e Z | ` I F F F F d 2 k  .! d K #.#.$.O.{ ! F F I g # 5 I I I v 3 1 # ",
"< 7 y 8 M I I I v 2 k } ` L ' <.>.$.+.{ ` L K F v 8 Z | ` I L F F F d 2 h } Q p T $.$.$.+.} ` n F U d # 5 I I I v 3 1 # ",
"< y y ( A I Y F h 2 9 F K D K L K K K K F F F E v 2 k  .` F F I K F k e f K F c x z x K K K F F D F M 2 9 D K I v 2 2 2 ",
"# 7 y ( A I L F h 2 9 b x x x x n x c x x b D K v 2 k | ` F F I K F v e f c x x z a d x x b x x b D a 2 9 D K I v 2 2 2 ",
"< 7 7 y N I I I v 2 2 5 3 3 5 2 4 5 2 & = 3 2 & 2 7 Z | ` U F F F D d 2 2 5 2 % = 3 1 & = 3 - & 1 3 - @ ; D F I v 3 1 # ",
"< 7 y 7 B I Y I v 2 3 q q 8 7 7 5 2 4 = - q 5 % 5 y S | ` U I F F F v 8 8 q 4 = - 5 2 # = q 5 < - 8 2 # ; D F I v 2 1 # ",
"< e ( ( C F F F d 2 A ,.&.@.O.{ T 1 V *.&.@.O.[ [ [ } | ` I U I K D Q $.@.#.O.[ ! K v e J >.&.+.o.{ Y 2 8 F F F d 2 3 2 ",
"# 7 r ( C F F F d 2 H 1.:.$.+.| R 2 H 1.:.$.+.} | } } } ` L I I K n Q $.$.$.O.| ` I n e _ 1.;.$.+.| R 2 a F F F M 2 3 2 ",
"+ y 8 y M I Y D h 2 V -.O.U U U v 2 V =.O.E E E U U I F F U F F F D F K K K K K F F d 2 Z =.+.E U I b 2 f I I I n 7 7 # ",
"+ 7 y 8 M I Y F d 1 V %.o.I I L v 2 Z =.o.L L L I I L F F U I F F F F F F D D F F F h 2 Z =.X.L I L v 2 8 I I I G 8 7 # ",
"# 7 8 y M I I I v 2 k ..[ I F d 9 1 k  .` D K U L F F I F F F U K D K Y L D D D D F v 8 A  .` I F g u 2 8 F F I v 3 2 2 ",
"& y r 8 M I I I v 2 k [ ` K n p 9 2 k ] ! b D F F x F K F D F F F n D K F n b x b b M e Z { ` F D a 8 2 a F F I C 2 3 2 ",
"& e r e M I I I v 3 3 7 5 5 3 3 5 e q 5 5 5 - & = 5 - % = 5 - % = 3 - % = 5 - % = 4 4 2 5 8 ; & * 3 2 2 8 D D F b 8 8 3 ",
"# e e e M I I I v 2 3 8 q q 8 8 e N t 8 8 8 4 = - 8 5 = - 8 5 % 2 8 5 = - 7 4 = - 7 7 q 7 5 4 % 2 3 3 3 9 F D D v 8 7 3 ",
"< e y ( A I I F a + M >.>.>.&.#.#.#.#.@.o.[ } #.O.] } #.O.] } #.O.[ } #.O.] } #.O.[ } #.+.[ ] ] ` F g 2 9 F F I v 2 3 3 ",
"& e y ( C I Y D a + B 1.1.<.-.$.$.$.$.$.+.|  .$.O.{  .$.+.{ +.%.+.} | $.+.{  .%.+.}  .%.+.} { | ` L v 2 8 F L I v 6 3 2 ",
"< ( y e N I F d 9 * Z -.O.E E K L E U K L U I F K K L E E U L K K K K K K K K K K K K L F F F p g g : @ : I L F B 8 7 2 ",
"< ( ( e B I F d u 2 V =.o.L F F F I K F F I K F F F F L L L K c D c c F D D D F D D D D F F x d p p : @ : I L F A 8 7 2 ",
"1 e y ( A I Y D d 2 k  .` F F I K F F D F F F F F D F F F F F F D D F D F D K P L D D D D D D D x p 8 2 9 I F F v 3 3 3 ",
"1 e y ( A I Y D d 1 k ..` F F U K x x b b c x x x x x x c x x x x x x x x x c K K x x x c F F F x d u 2 9 I L F d 3 2 2 ",
"1 ( ( e M I I F s + j =.o.L L U h . # 5 4 5 2 & = 5 2 & & & & & % & & & & & & % % & % $ > L K F x p : + : I L D h 2 2 2 ",
"< ( y r B L L F s + j =.o.I I I s   @ 4 4 2 = $ * 2 1 $ $ $ $ $ $ $ $ $ $ @ $ @ $ + $ + : I L F x d : $ : I L F h 2 3 2 ",
"6 ( ( ( C F F I v 1 B | [ I I I h + < e 7 2 6 e e 8 e 8 e e e q 8 e 5 2 2 - - 2 2 2 2 - w I I L D d : 2 8 D F U v 2 2 2 ",
"6 ( ( ( C F K I v 1 k | ` L I I v = 5 N t q q N N N m m t t y t y N t 5 5 8 q 7 7 5 5 7 f I I I D d u - u D F U v 2 2 2 ",
"< e y ( A L K F s + s | [ I L F ~ *.*.>.*.#.#.#.#.$.O.X.| $.O.{ | #.O.[ } $.O.[ [ [ { [ ` L K F x p : $ 8 I L F h 2 1 @ ",
"& e y ( A I L F s + 0  .` I K x ^ <.<.<.;.$.%.$.$.$.+.{  .$.+.} o.$.+.|  .$.O.| } } | | ` L L F D p : @ : I F F M 3 1 @ ",
"1 e e e B U U L h + 0 | ` F F F F Y E E I K F Y K K F F F K K F K K F K F K K F F L K U I I K F x p : + : I F F d 2 3 2 ",
"1 e r e B I L L h + , } ! F F F D D F Y F F F D b F F F c F F D D D D D c F F D D D F L L L F F x p : + : I Y D d 2 2 2 ",
"< e y y A Y L F s + : E L F F F D F x p x D x d z F x d g F x d z F x d g F x p d d d p g p d p d p : + : I F p a 2 1 # ",
"# e y ( A R L F a + ; F F z z x x x z i p x z u d z g i p x z u d x g i d x g u u a u u u u u u u p : + ; I F p 9 2 1 # ",
"< e e e M F K I s   X O O X X X X X X X X X X X . X O O X X X X X X X X X X X X X X X X X X X X X X X   - I L F a # & 2 ",
"# r r e M F F I d X X X X X X X X X O O X X X X O O O O X X O O O O O O O X X X X X X O X X X X X X X X ; I L F a @ & 2 ",
"< ( ( e M L L F F x g u d b x x n F K F K K n x D K F x b F F F F K K F K F F z b x x x g u d x c K F K K I K D d 2 1 # ",
"< ( y e M L K F F F b d g D D D K I Y L I I K F F I K D F I I I I Y I Y I I L F F F D D b d g D K L L I I I L D h 2 1 # ",
"1 r e e M F F I F F D D D D D D F F F F F F D D F F F D F F F F F F F F F F K L I I F D D D D D D D K I L F D D h 2 2 2 ",
"1 e e 8 f n F K F b b x b b b x x b c x x b b c b b b b b b x x x x x x x b D K F L F x x D b b b c c L F c D x a 2 2 2 ",
"< e 8 6 3 3 3 5 5 3 2 & * 3 2 % = 3 2 & * 5 3 3 5 3 - % * 3 2 & % & & % = 5 2 % * 5 - % * 3 3 3 5 5 5 5 3 5 2 % $ # & 2 ",
"# e 7 2 2 2 2 2 2 2 * $ & 3 * $ % 2 * $ & 2 2 2 2 2 * @ & 2 1 @ # # @ @ & 2 * $ * 2 1 @ & 2 3 3 2 2 2 1 2 2 * @ @ @ & 2 ",
"+ 3 3 2 1 @ 1 6 1 $ * 2 1 + & 2 * # & 2 1 $ $ $ $ $ # @ +   X @ @ @ @ @ # # & 2 1 @ & 2 1 @ & 2 1 $ + $ # $ $ $ @ @ # # ",
"+ 3 2 2 1 + & 2 * + & 2 1 @ & 3 1 @ * 2 * @ @ @ + @ @ @ O   X @ @ @ @ @ + # & 2 1 @ & 2 1 + & 3 = + $ + @ @ @ + @ @ @ $ "
};
